<?xml version="1.0" encoding="utf-8"?>
<!-- Generator: Adobe Illustrator 16.0.4, SVG Export Plug-In . SVG Version: 6.00 Build 0)  -->
<!DOCTYPE svg PUBLIC "-//W3C//DTD SVG 1.1//EN" "http://www.w3.org/Graphics/SVG/1.1/DTD/svg11.dtd">
<svg version="1.1" xmlns="http://www.w3.org/2000/svg" xmlns:xlink="http://www.w3.org/1999/xlink" x="0px" y="0px"
	 width="889.466px" height="419.529px" viewBox="0 0 889.466 419.529" enable-background="new 0 0 889.466 419.529"
	 xml:space="preserve">
<g>
	<g>
		<path fill="#A6A6A6" d="M483.072,39.919c0,22.042-17.871,39.916-39.919,39.916c-22.048,0-39.914-17.874-39.914-39.916
			C403.24,17.871,421.105,0,443.153,0C465.201,0,483.072,17.871,483.072,39.919z"/>
		<path fill="#A6A6A6" d="M331.422,109.478c-7.339-11.175-18.773-20.281-33.287-23.979c-28.418-7.231-56.891,8.273-63.595,34.609
			c-3.688,14.505-1.647,30.697,8.755,40.8c3.165,3.069,15.786,11.377,26.967,6.985c4.322-1.894,2.092-5.572,0.912-6.796
			c-5.846-6.08-19.271-28.346,1.401-46.974c15.855-14.287,39.38-14.375,56.197-4.361
			C329.655,110.286,332.775,111.538,331.422,109.478z"/>
		<path fill="#A6A6A6" d="M408.099,155.941c21.468-11.201,37.005-20.174,38.905-34.095c0.613-4.487-2.428-7.541-5.035-9.945
			c-2.903-2.464-3.338-6.3-1.196-8.494c5.473-5.591,20.076-3.537,23.934-2.057c2.473,0.952,14.788,5.146,11.648,19.865
			c-1.547,7.25-8.573,15.473-16.478,22.6c-7.413,6.686-57.388,47.886-155.925,88.638c-91.73,37.935-196.226,56.888-212.1,22.926
			c-15.871-33.952,42.194-84.097,57.083-95.819c14.883-11.715,45.006-30.182,57.592-33.615c0,0,11.693-4.172,8.279,12.412
			c-3.417,16.593-17.379,23.067-17.379,23.067c-5.023,2.726-10.253-0.902-13.791,1.426c-3.55,2.31-18.228,12.69-22.462,30.984
			c-4.234,18.281-2.615,48.267,79.208,25.407C325.916,195.349,356.37,182.908,408.099,155.941z"/>
	</g>
	<g>
		<g>
			<path fill="#E33036" d="M4.926,360.424c4.78,8.402,11.01,11.879,14.487,13.183c1.448,0.579,3.911,1.304,7.678,1.304
				c13.038,0,16.515-8.402,16.515-13.907c0-1.014,0-2.897-1.014-5.07c-1.883-3.911-5.071-5.795-8.692-7.823l-3.332-1.883
				c-2.608-1.449-5.215-3.042-7.533-4.78c-8.402-5.94-12.314-12.459-12.314-22.744c0-2.608,0.145-8.982,3.332-15.211
				c4.781-8.982,16.225-18.688,38.969-18.688c12.749,0,19.992,3.042,25.062,5.505L73.737,310.3
				c-6.809-8.982-16.37-10.431-20.281-10.431c-7.533,0-14.776,4.201-14.776,12.748c0,7.823,6.664,10.865,8.547,11.879l3.332,1.884
				c4.491,2.463,8.692,4.78,12.749,8.112c6.374,5.36,9.126,11.444,9.126,19.847c0,17.529-13.183,30.422-29.408,34.623
				c-2.463,0.58-7.244,1.594-13.907,1.594c-3.332,0-14.197-0.29-24.048-4.201c-1.738-0.725-3.477-1.594-5.07-2.463L4.926,360.424z"
				/>
			<path fill="#E33036" d="M205.855,366.073c-0.435,0.725-3.767,7.823-6.809,12.024c-6.664,8.981-14.052,10.141-24.627,10.72
				h-17.964V331.16l-15.211,34.334c-4.781,10.43-7.533,15.065-12.313,18.543c-6.084,4.346-13.328,4.636-20.426,4.78H88.513v-75.186
				h26.655l-0.724,59.25l16.515-37.23c1.159-2.463,2.318-4.78,3.767-7.243c3.622-6.52,7.388-11.3,14.776-13.618
				c3.622-1.158,6.954-1.158,14.487-1.158h15.501v58.96l22.02-48.819c0.58-1.159,2.173-4.636,5.215-6.954
				c4.056-3.042,8.402-3.187,13.183-3.187h11.01L205.855,366.073z"/>
			<path fill="#E33036" d="M253.223,388.817h-11.01c-1.014,0-2.028-0.145-3.187-0.29c-5.505-0.579-7.968-3.042-9.271-5.215
				c-1.449-2.028-1.883-4.201-1.883-6.664c0-1.883,0.29-3.187,0.58-4.926l12.313-58.091h28.394L253.223,388.817z M266.117,278.573
				c7.678,3.622,8.836,11.155,8.836,13.907c-0.145,8.548-6.953,15.356-15.5,15.356c-8.402,0-15.211-6.954-15.211-15.356
				c0-8.547,6.809-15.355,15.356-15.355C261.916,277.125,264.088,277.56,266.117,278.573z"/>
			<path fill="#E33036" d="M332.609,335.361c-6.664-7.822-14.921-9.562-18.833-9.562c-7.244,0-9.562,4.347-9.562,7.389
				c0,3.767,2.463,5.505,5.36,6.954l4.636,2.462c2.462,1.304,4.925,2.608,7.243,4.201c6.519,4.347,10.141,8.982,10.141,17.239
				c0,7.243-3.187,12.169-4.78,14.197c-4.781,6.374-13.183,12.458-30.277,12.458c-4.491,0-15.356,0-26.366-6.084l4.346-20.571
				c0.869,1.304,1.449,2.173,1.883,2.753c1.738,2.028,8.692,9.126,18.398,9.126c3.477,0,6.809-1.014,8.981-4.056
				c1.159-1.738,1.304-3.188,1.304-4.201c0-2.607-1.304-4.057-5.36-6.374l-4.346-2.318c-9.561-4.636-18.108-9.416-18.108-21.44
				c0-3.477,0.869-7.388,2.463-10.285c3.767-7.243,13.473-15.646,32.161-15.646c12.748,0,19.557,3.332,24.482,6.229L332.609,335.361
				z"/>
			<path fill="#E33036" d="M401.854,335.361c-6.664-7.822-14.921-9.562-18.833-9.562c-7.244,0-9.562,4.347-9.562,7.389
				c0,3.767,2.463,5.505,5.36,6.954l4.636,2.462c2.462,1.304,4.925,2.608,7.243,4.201c6.519,4.347,10.141,8.982,10.141,17.239
				c0,7.243-3.187,12.169-4.78,14.197c-4.781,6.374-13.183,12.458-30.277,12.458c-4.491,0-15.356,0-26.366-6.084l4.346-20.571
				c0.869,1.304,1.449,2.173,1.883,2.753c1.739,2.028,8.692,9.126,18.398,9.126c3.477,0,6.809-1.014,8.981-4.056
				c1.159-1.738,1.304-3.188,1.304-4.201c0-2.607-1.304-4.057-5.36-6.374l-4.346-2.318c-9.561-4.636-18.108-9.416-18.108-21.44
				c0-3.477,0.87-7.388,2.463-10.285c3.767-7.243,13.473-15.646,32.161-15.646c12.748,0,19.557,3.332,24.482,6.229L401.854,335.361z
				"/>
			<path fill="#A6A6A6" d="M489.207,361.728c-1.015,1.448-1.884,2.752-2.897,4.201c-6.085,9.126-11.444,14.342-15.356,16.949
				c-8.257,5.649-17.384,5.939-26.8,5.939h-17.384V286.541h27.959l-0.58,86.051c2.753,0,3.188-1.014,4.491-3.187
				c0.435-0.579,0.725-1.159,1.159-1.738l37.955-64.61c3.042-4.781,6.229-9.417,11.01-12.604c5.36-3.622,10.575-3.912,16.805-3.912
				h10.575L489.207,361.728z"/>
			<path fill="#A6A6A6" d="M599.015,370.854c-12.604,18.543-32.595,19.847-39.839,19.847c-2.897,0-10.43-0.145-18.253-3.331
				c-7.099-2.897-20.86-11.3-20.86-32.016c0-5.795,1.158-18.254,12.168-29.554c5.216-5.359,16.516-14.196,35.638-14.196
				c4.201,0,16.08,0.289,26.366,8.257c11.444,8.982,12.458,21.296,12.458,26.511c0,2.173-0.29,6.52-1.738,11.879
				C603.65,362.886,601.622,366.942,599.015,370.854z M578.009,340.866c0-1.304,0.145-8.691-4.491-12.604
				c-1.014-0.869-2.896-2.173-5.939-2.173c-4.346,0-9.416,2.607-13.473,10.721c-3.042,6.374-5.505,17.238-5.505,24.337
				c0,1.015-0.145,8.982,4.636,12.894c0.869,0.869,2.753,2.173,5.795,2.173c4.491-0.145,8.402-3.332,10.72-6.664
				c4.057-5.649,6.954-16.08,7.823-22.889C577.864,345.067,578.009,342.46,578.009,340.866z"/>
			<path fill="#A6A6A6" d="M640.3,388.817h-11.01c-1.014,0-2.028-0.145-3.187-0.29c-5.505-0.579-7.968-3.042-9.271-5.215
				c-1.449-2.028-1.884-4.201-1.884-6.664c0-1.883,0.29-3.187,0.58-4.926l20.136-94.598h28.395L640.3,388.817z"/>
			<path fill="#A6A6A6" d="M685.497,388.817h-11.01c-1.015,0-2.028-0.145-3.188-0.29c-5.505-0.579-7.968-3.042-9.271-5.215
				c-1.448-2.028-1.883-4.201-1.883-6.664c0-1.883,0.29-3.187,0.579-4.926l20.137-94.598h28.394L685.497,388.817z"/>
			<path fill="#A6A6A6" d="M740.4,358.83c-0.146-1.304-0.29-3.332,0.725-6.52c1.593-4.636,5.215-7.822,10.285-7.822
				c1.738,0,3.332,0.435,5.215,0.435c2.753,0,5.65-1.449,6.664-4.057c0.725-1.738,0.725-3.621,0.725-4.201
				c0-6.084-3.622-10.72-10.141-10.72c-3.622,0-7.678,1.448-11.879,7.822c-5.939,8.982-6.664,20.427-6.664,23.469
				c0,5.36,1.304,9.851,5.07,13.907c5.505,5.795,12.023,5.649,14.921,5.649c3.477,0,13.183-0.289,21.73-6.519
				c1.304-1.014,3.477-2.753,6.084-5.649l-4.491,21.15c-1.593,0.579-3.187,1.304-4.925,1.738
				c-9.417,3.187-19.847,3.187-22.744,3.187c-13.473,0-27.67-2.752-36.796-13.762c-6.954-8.402-7.244-17.818-7.244-21.73
				c0-3.187,0.29-9.995,3.767-17.818c7.823-17.239,25.207-25.786,43.46-25.786c15.936,0,24.772,6.229,29.264,11.589
				c5.505,6.52,5.939,13.184,5.939,16.226c0,2.607-0.29,10.865-7.243,16.08c-4.347,3.188-7.968,3.042-17.674,3.188
				c-2.318,0.145-4.636,0.145-6.954,0.145H740.4z"/>
			<path fill="#A6A6A6" d="M843.108,391.57c-7.968,12.458-12.169,17.528-18.398,21.874c-4.346,3.043-9.851,6.085-21.44,6.085
				c-3.331,0-5.359-0.435-6.663-0.725l3.621-17.674c0.725,0.146,2.318,0.725,4.201,0.725c3.911,0,8.258-2.173,8.258-6.664
				c0-2.463-1.738-5.939-7.389-5.939c-0.869,0-1.883,0-2.752,0.145v-75.765h27.234l-0.869,64.61l26.076-49.11
				c2.173-3.911,3.622-5.939,4.926-7.532c6.374-7.533,13.907-8.113,23.034-7.968h6.519L843.108,391.57z"/>
		</g>
	</g>
</g>
</svg>
