<?xml version="1.0" encoding="utf-8"?>
<!-- Generator: Adobe Illustrator 19.2.1, SVG Export Plug-In . SVG Version: 6.00 Build 0)  -->
<svg version="1.1" id="layer" xmlns="http://www.w3.org/2000/svg" xmlns:xlink="http://www.w3.org/1999/xlink" x="0px" y="0px"
	 viewBox="0 0 652 652" style="enable-background:new 0 0 652 652;" xml:space="preserve">
<style type="text/css">
	.st0{fill-rule:evenodd;clip-rule:evenodd;fill:#0066CC;}
	.st1{fill:#0066CC;}
	.st2{fill:none;stroke:#0066CC;stroke-width:3.8171;stroke-miterlimit:3.8636;}
	.st3{fill-rule:evenodd;clip-rule:evenodd;fill:#244896;}
	.st4{fill:none;stroke:#0066CC;stroke-width:1.3344;stroke-miterlimit:3.8637;}
</style>
<path class="st0" d="M20.6,419.1c0,0,126-32,306.7-32c167.9,0,293.3,30.9,293.3,30.9s-125.5-45.8-293.3-45.8
	C136.8,372.2,20.6,419.1,20.6,419.1z"/>
<rect x="120.8" y="223.1" class="st1" width="97.6" height="26"/>
<rect x="120.8" y="223.1" class="st2" width="97.6" height="26"/>
<rect x="231.7" y="223.1" class="st0" width="34.2" height="121.4"/>
<rect x="231.7" y="223.1" class="st2" width="34.2" height="121.4"/>
<path class="st1" d="M316.9,223.4l25.7,77.7l26.4-77.7h114.4c13.9,0,36.1,9.1,36.1,34.5c0,20.9-16.3,24.6-16.3,24.6
	s18.5,2.2,18.5,26.7c0,23.8-18.3,35-46.5,35h-60.7v-25.9h56.8c6.8-0.1,15.7-0.7,16.2-9.7c0.7-10.7-8.6-11.1-15.9-11.1h-57.2v-27
	h58.3c4,0,12.8-1.6,12.9-9.8c0-5.6-1.1-11.8-12.1-11.8h-79.8l-33.5,95.3h-34.8l-34.2-94.9h-13.3v-25.9H316.9z"/>
<path class="st2" d="M316.9,223.4l25.7,77.7l26.4-77.7h114.4c13.9,0,36.1,9.1,36.1,34.5c0,20.9-16.3,24.6-16.3,24.6
	s18.5,2.2,18.5,26.7c0,23.8-18.3,35-46.5,35h-60.7v-25.9h56.8c6.8-0.1,15.7-0.7,16.2-9.7c0.7-10.7-8.6-11.1-15.9-11.1h-57.2v-27
	h58.3c4,0,12.8-1.6,12.9-9.8c0-5.6-1.1-11.8-12.1-11.8h-79.8l-33.5,95.3h-34.8l-34.2-94.9h-13.3v-25.9H316.9z"/>
<polygon class="st1" points="120.9,267.7 208.6,267.7 208.6,294.7 155,294.7 155,344.4 120.9,344.4 "/>
<polygon class="st2" points="120.9,267.7 208.6,267.7 208.6,294.7 155,294.7 155,344.4 120.9,344.4 "/>
<path class="st1" d="M524.7,342.1v-7.9h1.7l2,5.6l0.4,1.2l0.5-1.3l2.1-5.5h1.5v7.9h-1.1v-6.6l-2.5,6.6h-1l-2.5-6.7v6.7H524.7z
	 M519.5,342.1v-7h-2.8v-0.9h6.8v0.9h-2.8v7H519.5z"/>
<polygon class="st3" points="519.5,342.1 519.5,335.1 516.7,335.1 516.7,334.2 523.5,334.2 523.5,335.1 520.7,335.1 520.7,342.1 "/>
<path class="st3" d="M524.7,342.1v-7.9h1.7l2,5.6c0.2,0.5,0.3,0.9,0.4,1.2c0.1-0.3,0.2-0.7,0.5-1.3l2.1-5.5h1.5v7.9h-1.1v-6.6
	l-2.5,6.6h-1l-2.5-6.7v6.7H524.7z"/>
<path class="st4" d="M524.7,342.1v-7.9h1.7l2,5.6l0.4,1.2l0.5-1.3l2.1-5.5h1.5v7.9h-1.1v-6.6l-2.5,6.6h-1l-2.5-6.7v6.7H524.7z
	 M519.5,342.1v-7h-2.8v-0.9h6.8v0.9h-2.8v7H519.5z"/>
</svg>
